HIERARCHY
ROOT Hips
{
	OFFSET 62.837399 6.869677 77.889900
	CHANNELS 6 Xposition Yposition Zposition Xrotation Yrotation Zrotation
	JOINT spine
	{
		OFFSET 0.000000 -0.367607 6.392601
		CHANNELS 3 Xrotation Yrotation Zrotation
		JOINT spine1
		{
			OFFSET 0.000000 -0.000001 9.176109
			CHANNELS 3 Xrotation Yrotation Zrotation
			JOINT spine2
			{
				OFFSET 0.000000 -0.000001 8.792381
				CHANNELS 3 Xrotation Yrotation Zrotation
				JOINT Neck
				{
					OFFSET 0.000000 -1.076244 22.573700
					CHANNELS 3 Xrotation Yrotation Zrotation
					JOINT Head
					{
						OFFSET 0.000000 -0.000001 6.820114
						CHANNELS 3 Xrotation Yrotation Zrotation
						End Site
						{
							OFFSET 0.000000 5.444267 16.508499
						}
					}
				}
				JOINT RightShoulder
				{
					OFFSET -3.702209 0.515507 9.495087
					CHANNELS 3 Xrotation Yrotation Zrotation
					JOINT RightArm
					{
						OFFSET 0.000000 -0.000002 12.453697
						CHANNELS 3 Xrotation Yrotation Zrotation
						JOINT RightArmRoll
						{
							OFFSET 0.000000 -0.000001 6.286858
							CHANNELS 3 Xrotation Yrotation Zrotation
							JOINT RightForeArm
							{
								OFFSET 0.000000 -0.000003 18.311401
								CHANNELS 3 Xrotation Yrotation Zrotation
								JOINT RightForeArmRoll
								{
									OFFSET 0.000000 -0.000001 7.054825
									CHANNELS 3 Xrotation Yrotation Zrotation
									JOINT RightHand
									{
										OFFSET 0.000000 -0.000002 14.157501
										CHANNELS 3 Xrotation Yrotation Zrotation
										End Site
										{
											OFFSET 0.000000 0.000000 0.100006
										}
									}
								}
							}
						}
					}
				}
				JOINT LeftShoulder
				{
					OFFSET 3.702213 0.515507 9.495087
					CHANNELS 3 Xrotation Yrotation Zrotation
					JOINT LeftArm
					{
						OFFSET 0.000000 -0.000002 12.453697
						CHANNELS 3 Xrotation Yrotation Zrotation
						JOINT LeftArmRoll
						{
							OFFSET 0.000000 -0.000001 6.286858
							CHANNELS 3 Xrotation Yrotation Zrotation
							JOINT LeftForeArm
							{
								OFFSET 0.000000 -0.000003 18.311401
								CHANNELS 3 Xrotation Yrotation Zrotation
								JOINT LeftForeArmRoll
								{
									OFFSET 0.000000 -0.000001 7.054825
									CHANNELS 3 Xrotation Yrotation Zrotation
									JOINT LeftHand
									{
										OFFSET 0.000000 -0.000002 14.157501
										CHANNELS 3 Xrotation Yrotation Zrotation
										End Site
										{
											OFFSET 0.000000 0.000000 0.100006
										}
									}
								}
							}
						}
					}
				}
			}
		}
	}
	JOINT RightUpLeg
	{
		OFFSET -5.666149 0.871611 -1.039032
		CHANNELS 3 Xrotation Yrotation Zrotation
		JOINT RightUpLegRoll
		{
			OFFSET 0.000000 -0.000003 16.600502
			CHANNELS 3 Xrotation Yrotation Zrotation
			JOINT RightLeg
			{
				OFFSET 0.000000 0.000003 -20.557198
				CHANNELS 3 Xrotation Yrotation Zrotation
				JOINT RightLegRoll
				{
					OFFSET 0.000000 -0.000003 20.624397
					CHANNELS 3 Xrotation Yrotation Zrotation
					JOINT RightFoot
					{
						OFFSET 0.000000 -0.000003 17.166397
						CHANNELS 3 Xrotation Yrotation Zrotation
						JOINT RightToeBase
						{
							OFFSET 0.000000 -0.000002 14.350197
							CHANNELS 3 Xrotation Yrotation Zrotation
							End Site
							{
								OFFSET 0.006081 0.801060 6.949715
							}
						}
					}
				}
			}
		}
	}
	JOINT LeftUpLeg
	{
		OFFSET 5.666149 0.871611 -1.039032
		CHANNELS 3 Xrotation Yrotation Zrotation
		JOINT LeftUpLegRoll
		{
			OFFSET 0.000000 -0.000003 16.600601
			CHANNELS 3 Xrotation Yrotation Zrotation
			JOINT LeftLeg
			{
				OFFSET 0.000000 -0.000003 20.557098
				CHANNELS 3 Xrotation Yrotation Zrotation
				JOINT LeftLegRoll
				{
					OFFSET 0.000000 -0.000003 20.815102
					CHANNELS 3 Xrotation Yrotation Zrotation
					JOINT LeftFoot
					{
						OFFSET 0.000000 -0.000003 16.975708
						CHANNELS 3 Xrotation Yrotation Zrotation
						JOINT LeftToeBase
						{
							OFFSET 0.000000 -0.000002 14.350204
							CHANNELS 3 Xrotation Yrotation Zrotation
							End Site
							{
								OFFSET -0.027260 0.801060 6.949707
							}
						}
					}
				}
			}
		}
	}
}
MOTION
Frames: 13
Frame Time: 0.041667
51.815605 9.127348 80.368996 13.961823 -1.077632 -2.396457 -1.291178 0.541399 -0.231054 1.422665 1.085595 -0.455208 3.067826 1.080060 -0.468179 -17.320646 -5.035329 0.570610 13.106141 2.484362 1.963791 -3.645877 -41.495291 -2.288379 -64.921986 -151.919048 -63.469622 0.000000 0.000006 -0.000007 61.564497 -3.305016 -0.382776 -0.000005 0.000024 -3.012341 -5.000191 -7.998928 0.000162 -8.233647 22.911653 6.347579 -62.471191 160.429655 63.532371 0.000006 0.000001 0.000003 70.577362 -1.671837 0.429758 -0.000000 -0.000002 2.999999 -5.000220 7.998759 -0.000169 -38.079295 -177.586476 -1.203067 -179.999991 0.000005 -0.883002 133.531264 -0.998114 -1.926469 0.000001 0.000000 1.273890 81.979571 6.390344 2.757068 29.114832 -7.287516 1.312032 -37.077101 179.939367 0.640319 -0.000006 -0.000004 -1.035860 -46.380198 3.309946 2.241614 -0.000004 0.000000 -1.264180 82.116851 -7.134320 0.068396 31.204078 7.319381 -0.731480 
51.895401 8.793828 80.859497 13.832152 -1.089732 -2.359445 -1.330871 0.541651 -0.231919 1.343272 1.086222 -0.456560 2.988434 1.080669 -0.469538 -16.866964 -5.029039 0.564032 13.087599 2.511971 1.927657 -3.824158 -41.501814 -2.522198 -64.615796 -151.556379 -63.347081 -0.000004 0.000009 -0.000008 61.674409 -3.333188 -0.373828 -0.000005 0.000022 -3.012322 -5.000189 -7.998932 0.000158 -8.259953 22.947807 6.389882 -62.018405 160.159808 63.416831 0.000002 -0.000001 0.000002 70.829963 -1.598792 0.454857 -0.000000 -0.000002 3.000001 -5.000216 7.998761 -0.000172 -37.198744 -177.461251 -1.267093 -179.999991 0.000005 -0.875994 134.945495 -1.071075 -1.907929 0.000000 0.000000 1.206750 81.171443 6.405701 2.727212 29.000812 -7.292836 1.255777 -36.104387 179.963641 0.790537 -0.000006 -0.000004 -1.022230 -44.844628 3.348954 2.176968 -0.000003 0.000000 -1.195240 81.260229 -7.148177 -0.044751 30.928483 7.322747 -0.696475 
51.928200 8.544446 81.197495 13.709182 -1.101517 -2.317720 -1.371931 0.542074 -0.234231 1.261178 1.087207 -0.460807 2.906339 1.081597 -0.473797 -16.401663 -5.023270 0.556041 13.055612 2.536077 1.892450 -4.003998 -41.503699 -2.757727 -64.304947 -151.190281 -63.211400 0.000001 0.000008 -0.000009 61.794839 -3.355717 -0.363895 -0.000005 0.000026 -3.012298 -5.000190 -7.998928 0.000164 -8.294191 22.992874 6.444730 -61.582188 159.874593 63.346282 0.000003 -0.000001 0.000003 71.061985 -1.518765 0.478947 0.000001 0.000001 3.000003 -5.000220 7.998761 -0.000171 -36.297920 -177.328035 -1.331793 -179.999991 0.000005 -0.869997 136.443055 -1.139350 -1.886165 -0.000000 0.000000 1.136410 80.289796 6.422696 2.695722 28.835635 -7.299405 1.185524 -35.111182 179.986099 0.940295 -0.000006 -0.000004 -1.008570 -43.229107 3.378158 2.112396 -0.000004 0.000001 -1.124070 80.304146 -7.157547 -0.183354 30.599360 7.326561 -0.654670 
51.960098 8.584125 81.783997 13.592013 -1.113019 -2.272096 -1.414103 0.542500 -0.237736 1.176841 1.088221 -0.467441 2.822004 1.082546 -0.480444 -15.926212 -5.016426 0.547495 13.012474 2.556144 1.858099 -4.184601 -41.502586 -2.994078 -63.991305 -150.819880 -63.065746 0.000001 0.000006 -0.000007 61.925343 -3.373192 -0.353214 -0.000005 0.000023 -3.012280 -5.000190 -7.998934 0.000160 -8.335053 23.049896 6.510641 -61.162520 159.572234 63.318265 0.000002 -0.000002 0.000002 71.276166 -1.432490 0.502398 0.000001 -0.000004 3.000001 -5.000219 7.998762 -0.000170 -35.381879 -177.190106 -1.394736 -179.999991 0.000005 -0.864000 138.009546 -1.203471 -1.864041 0.000002 0.000000 1.063690 79.350576 6.441809 2.663421 28.626843 -7.306761 1.103445 -34.101680 180.005811 1.090813 -0.000006 -0.000004 -0.994926 -41.546886 3.397764 2.047748 -0.000002 0.000000 -1.051270 79.267760 -7.161482 -0.343360 30.225674 7.330604 -0.607186 
51.991009 8.284787 82.258598 13.479943 -1.124259 -2.223405 -1.457166 0.542763 -0.242180 1.090747 1.088953 -0.475955 2.735910 1.083164 -0.488967 -15.442586 -5.006848 0.539175 12.960682 2.571627 1.824552 -4.365234 -41.500079 -3.230404 -63.676132 -150.444492 -62.911937 0.000000 0.000006 -0.000007 62.065581 -3.386227 -0.342016 -0.000005 0.000022 -3.012262 -5.000192 -7.998928 0.000160 -8.381185 23.121507 6.586076 -60.759457 159.251652 63.329739 0.000003 0.000001 0.000003 71.475054 -1.340678 0.525601 -0.000001 0.000000 3.000002 -5.000220 7.998760 -0.000174 -34.455395 -177.046003 -1.457101 -179.999991 0.000005 -0.858003 139.630404 -1.261825 -1.839531 -0.000001 0.000000 0.989394 78.369775 6.463398 2.630747 28.382016 -7.314467 1.011764 -33.080484 180.024307 1.241594 -0.000007 -0.000004 -0.981330 -39.810987 3.407886 1.982894 -0.000002 0.000001 -0.977463 78.170381 -7.159132 -0.520453 29.816013 7.334696 -0.555114 
52.061104 8.251698 82.778595 13.371977 -1.135253 -2.172471 -1.500868 0.542699 -0.247313 1.003372 1.089043 -0.485845 2.648543 1.083152 -0.498857 -14.952254 -4.992875 0.531828 12.902326 2.581995 1.791746 -4.545139 -41.497825 -3.465873 -63.362395 -150.062166 -62.755409 0.000000 0.000007 -0.000006 62.215087 -3.395431 -0.330523 -0.000006 0.000023 -3.012240 -5.000191 -7.998928 0.000161 -8.431280 23.210542 6.669550 -60.372725 158.911577 63.377653 0.000008 -0.000000 0.000002 71.661307 -1.244063 0.548927 0.000001 -0.000002 2.999996 -5.000217 7.998764 -0.000173 -33.523467 -176.898280 -1.517294 -179.999991 0.000005 -0.852007 141.291288 -1.316572 -1.812886 0.000001 0.000000 0.914346 77.363217 6.487604 2.598808 28.108580 -7.322113 0.912655 -32.051991 180.041533 1.393319 -0.000005 -0.000004 -0.967818 -38.034639 3.408558 1.917710 -0.000002 0.000001 -0.903259 77.031147 -7.149995 -0.710316 29.379400 7.338660 -0.499586 
52.126602 7.993086 83.249191 13.267304 -1.146022 -2.120142 -1.544979 0.542136 -0.252878 0.915191 1.088181 -0.496604 2.560367 1.082159 -0.509606 -14.457195 -4.972790 0.526113 12.839911 2.586704 1.759581 -4.723603 -41.497549 -3.699693 -63.051662 -149.672217 -62.597980 -0.000000 0.000008 -0.000005 62.373533 -3.401416 -0.318950 -0.000005 0.000023 -3.012231 -5.000191 -7.998933 0.000162 -8.484053 23.320045 6.759613 -60.002768 158.550561 63.460298 0.000003 -0.000002 0.000004 71.837348 -1.143354 0.572752 -0.000000 -0.000002 2.999998 -5.000216 7.998759 -0.000173 -32.590937 -176.748070 -1.574967 -179.999991 0.000005 -0.847007 142.977716 -1.366210 -1.784132 0.000001 0.000000 0.839360 76.347035 6.514398 2.567682 27.813987 -7.329358 0.808326 -31.020496 180.057433 1.546652 -0.000006 -0.000004 -0.954426 -36.230943 3.399687 1.852044 -0.000005 0.000000 -0.829275 75.869475 -7.133822 -0.908802 28.924489 7.342360 -0.441721 
52.121208 8.053837 83.803001 13.165027 -1.156581 -2.067241 -1.589252 0.540907 -0.258627 0.826683 1.086017 -0.507736 2.471849 1.079855 -0.520711 -13.959001 -4.944858 0.522648 12.775520 2.585199 1.727989 -4.899934 -41.500769 -3.931094 -62.745840 -149.273293 -62.442901 0.000003 0.000006 -0.000005 62.540381 -3.404803 -0.307539 -0.000006 0.000022 -3.012212 -5.000191 -7.998931 0.000161 -8.538203 23.452771 6.854765 -59.648793 158.168480 63.572956 0.000005 -0.000002 0.000004 72.005999 -1.039240 0.597442 -0.000000 -0.000002 2.999999 -5.000218 7.998765 -0.000169 -31.662684 -176.596426 -1.629913 -179.999991 0.000005 -0.841993 144.675182 -1.411628 -1.753201 0.000001 0.000000 0.765251 75.336884 6.543687 2.538235 27.506026 -7.335916 0.701009 -29.990507 180.071900 1.702234 -0.000007 -0.000004 -0.941191 -34.413293 3.381089 1.785764 -0.000003 0.000001 -0.756128 74.704654 -7.110777 -1.111310 28.460188 7.345662 -0.382622 
52.212112 7.793109 84.315598 13.064357 -1.166923 -2.014604 -1.633453 0.538843 -0.264307 0.738317 1.082190 -0.518739 2.383491 1.075909 -0.531668 -13.459561 -4.907317 0.521978 12.711674 2.576913 1.696862 -5.073438 -41.509249 -4.159324 -62.447272 -148.864205 -62.293299 0.000000 0.000007 -0.000008 62.715289 -3.406207 -0.296485 -0.000004 0.000022 -3.012190 -5.000189 -7.998932 0.000161 -8.592454 23.611546 6.953533 -59.311587 157.763368 63.715017 0.000002 -0.000001 0.000005 72.169678 -0.932428 0.623384 0.000001 -0.000001 3.000001 -5.000217 7.998764 -0.000175 -30.743651 -176.444509 -1.682051 -179.999991 0.000005 -0.838004 146.369369 -1.453068 -1.720336 0.000001 0.000000 0.692833 74.348966 6.574872 2.510708 27.192055 -7.341583 0.592918 -28.966313 180.086625 1.859731 -0.000006 -0.000004 -0.928151 -32.594667 3.352463 1.718666 -0.000002 0.000001 -0.684431 73.555803 -7.081433 -1.313918 27.995279 7.348494 -0.323436 
52.155704 7.783616 84.914291 12.964380 -1.177070 -1.963073 -1.677335 0.535773 -0.269666 0.650573 1.076381 -0.529117 2.295754 1.069971 -0.541976 -12.960473 -4.858360 0.524598 12.650552 2.561294 1.666131 -5.243444 -41.524623 -4.383662 -62.158116 -148.443547 -62.152304 -0.000001 0.000008 -0.000005 62.897928 -3.406234 -0.286012 -0.000005 0.000023 -3.012169 -5.000192 -7.998930 0.000161 -8.645528 23.799413 7.054467 -58.990356 157.335142 63.882090 0.000003 -0.000001 0.000006 72.331075 -0.823604 0.650896 -0.000000 -0.000001 2.999998 -5.000217 7.998764 -0.000170 -29.838699 -176.293521 -1.731382 -179.999991 0.000005 -0.833005 148.045716 -1.490041 -1.686241 -0.000001 0.000000 0.622924 73.399002 6.607514 2.485643 26.879738 -7.346231 0.486277 -27.952527 180.099821 2.020815 -0.000005 -0.000004 -0.915336 -30.788246 3.313381 1.650526 -0.000005 0.000001 -0.614802 72.442209 -7.046782 -1.512285 27.538660 7.350815 -0.265286 
52.231903 7.609237 85.482903 12.864208 -1.187018 -1.913468 -1.720666 0.531527 -0.274454 0.563931 1.068218 -0.538374 2.209102 1.061701 -0.551136 -12.463538 -4.796162 0.530965 12.594555 2.537764 1.635680 -5.409349 -41.548731 -4.603445 -61.880817 -148.009912 -62.023104 0.000001 0.000006 -0.000006 63.087650 -3.405544 -0.276321 -0.000005 0.000022 -3.012157 -5.000190 -7.998931 0.000164 -8.696177 24.019137 7.156069 -58.685279 156.882957 64.071997 0.000006 0.000002 0.000002 72.492786 -0.713443 0.680387 -0.000000 -0.000001 3.000001 -5.000218 7.998760 -0.000173 -28.952656 -176.145524 -1.777576 -179.999991 0.000005 -0.828005 149.689893 -1.522134 -1.648655 -0.000001 0.000000 0.556337 72.503127 6.640815 2.462858 26.576457 -7.349846 0.383310 -26.953335 180.113209 2.185167 -0.000004 -0.000004 -0.902790 -29.007298 3.263297 1.581079 -0.000004 0.000001 -0.547854 71.383243 -7.008120 -1.702473 27.098917 7.352626 -0.209263 
52.231506 7.441526 85.925903 12.763133 -1.196770 -1.866632 -1.763203 0.525932 -0.278421 0.478861 1.057363 -0.546019 2.124036 1.050748 -0.558650 -11.970572 -4.718884 0.541444 12.545988 2.505764 1.605440 -5.570474 -41.583124 -4.817962 -61.617896 -147.561961 -61.909101 0.000001 0.000006 -0.000009 63.284250 -3.404740 -0.267605 -0.000004 0.000023 -3.012138 -5.000190 -7.998928 0.000163 -8.743161 24.273659 7.256854 -58.396424 156.405841 64.282414 0.000002 0.000003 0.000005 72.657360 -0.602616 0.712135 0.000001 -0.000000 2.999999 -5.000217 7.998763 -0.000173 -28.090481 -176.001763 -1.820924 -179.999991 0.000004 -0.823006 151.287420 -1.550724 -1.610275 -0.000002 0.000000 0.493889 71.677132 6.673889 2.442616 26.289888 -7.352442 0.286253 -25.973251 180.126760 2.353470 -0.000004 -0.000004 -0.890546 -27.264872 3.201574 1.510008 -0.000002 0.000000 -0.484204 70.397913 -6.967250 -1.880328 26.685138 7.353936 -0.156538 
52.410007 7.275928 86.512291 12.660053 -1.206320 -1.823410 -1.804714 0.518813 -0.281318 0.395841 1.043445 -0.551558 2.041016 1.036772 -0.564022 -11.483293 -4.624658 0.556379 12.507159 2.464694 1.575333 -5.726239 -41.629638 -5.026580 -61.372542 -147.097659 -61.814612 0.000003 0.000008 -0.000007 63.487182 -3.404462 -0.260072 -0.000005 0.000023 -3.012119 -5.000189 -7.998929 0.000163 -8.785213 24.565841 7.355261 -58.123250 155.903986 64.509593 0.000001 -0.000000 0.000003 72.827329 -0.491787 0.746488 -0.000002 0.000000 2.999999 -5.000218 7.998761 -0.000172 -27.257074 -175.862645 -1.862284 -179.999991 0.000005 -0.819003 152.823693 -1.574703 -1.569311 -0.000002 0.000000 0.436394 70.937026 6.705829 2.424717 26.027619 -7.354140 0.197338 -25.016560 180.140475 2.526404 -0.000005 -0.000004 -0.878638 -25.574224 3.127441 1.436915 -0.000003 0.000000 -0.424467 69.505514 -6.926117 -2.042080 26.305912 7.354811 -0.108210 
